<svg width="50" height="50" viewBox="0 0 50 50" fill="none" xmlns="http://www.w3.org/2000/svg">
<rect width="50" height="50" rx="25" fill="#5865F2"/>
<path d="M29.5183 31.9506C30.1884 31.7083 30.8689 31.4124 31.4617 31.0125C31.3966 30.9556 31.0809 30.641 31.0351 30.6326C30.9778 30.6216 30.6259 30.8484 30.5338 30.891C27.5962 32.2543 22.8152 32.3266 19.8377 31.048C19.7114 30.9938 19.0265 30.6235 18.9801 30.6319C18.9518 30.6371 18.5426 30.9925 18.5703 31.0312C19.1683 31.4279 19.8397 31.696 20.4988 31.9719C20.5182 32.0837 19.6747 33.4379 19.5439 33.624C19.1747 34.1492 19.1496 34.0136 18.5613 33.8352C16.6392 33.2531 14.8273 32.2045 13.1978 31.05C13.1211 30.9589 13.1024 30.736 13.0889 30.6074C12.6649 26.5978 13.7906 22.4376 15.7591 18.9817C15.9401 18.6645 16.4543 17.7231 16.6805 17.5157C16.8087 17.3981 17.0903 17.3174 17.2597 17.2508C18.2507 16.8632 19.388 16.5207 20.4222 16.2668C20.6251 16.2171 21.5781 15.958 21.6999 16.0342L22.3172 17.2799L24.1432 17.0932C25.334 17.0654 26.5176 17.1132 27.6955 17.2799C27.901 16.9265 28.0454 16.4613 28.276 16.1266C28.3128 16.073 28.3566 16.0013 28.4268 16C29.3585 16.2003 30.2851 16.4342 31.1955 16.7172C31.5867 16.8386 33.1292 17.3148 33.3509 17.5345C33.6228 17.8039 34.1866 18.8538 34.4011 19.2395C36.2446 22.5617 37.2092 26.3032 36.9618 30.1299C36.9476 30.3509 36.9315 30.7301 36.8806 30.9311C36.8619 31.0047 36.8297 31.0357 36.7768 31.0842C36.541 31.2987 36.0358 31.5985 35.7491 31.782C34.4881 32.5909 33.021 33.3371 31.5905 33.79C31.4211 33.8436 30.9971 33.9987 30.8495 34C30.6781 34.0013 30.4855 33.6466 30.3972 33.5141C30.1453 33.1362 29.8218 32.6342 29.6214 32.2323C29.577 32.1431 29.5119 32.0585 29.5177 31.9506H29.5183ZM20.6715 23.6128C18.1238 23.9585 18.3951 28.5541 21.2443 28.2692C23.9667 27.9966 23.6722 23.2058 20.6715 23.6128ZM28.6671 23.6135C27.479 23.7563 26.7702 25.1144 26.883 26.2282C27.0672 28.0489 29.2026 29.0309 30.51 27.594C31.8779 26.0912 30.8592 23.3499 28.6671 23.6135Z" fill="white"/>
</svg>
